<?xml version="1.0" encoding="UTF-8"?>
<svg width="102px" height="102px" viewBox="0 0 102 102" version="1.1" xmlns="http://www.w3.org/2000/svg" xmlns:xlink="http://www.w3.org/1999/xlink">
    <!-- Generator: Sketch 49 (51002) - http://www.bohemiancoding.com/sketch -->
    <title>共享-2</title>
    <desc>Created with Sketch.</desc>
    <defs></defs>
    <g id="关于镝普" stroke="none" stroke-width="1" fill="none" fill-rule="evenodd">
        <g id="关于镝普-点击-copy" transform="translate(-1374.000000, -911.000000)" fill="#76B0FC">
            <path d="M1475.89216,987.982809 C1475.89216,995.122013 1470.0759,1000.93071 1462.92727,1000.93071 C1455.77877,1000.93071 1449.96251,995.122013 1449.96251,987.982809 C1449.96251,980.843605 1455.77877,975.03438 1462.92727,975.03438 C1463.51562,975.03438 1464.11063,975.075365 1464.7027,975.157735 C1465.23183,972.509051 1465.49998,969.86554 1465.49998,967.293654 C1465.49998,953.126531 1458.27418,940.225189 1446.17058,932.782372 C1444.94684,932.029111 1444.56395,930.421782 1445.31766,929.200036 C1445.79605,928.425022 1446.62559,927.962772 1447.53762,927.962772 C1448.01853,927.962772 1448.49227,928.095412 1448.90359,928.348356 C1462.5615,936.743394 1470.71287,951.301672 1470.71287,967.293654 C1470.71287,970.451542 1470.35759,973.68928 1469.65767,976.921977 C1473.5103,979.265854 1475.89216,983.477168 1475.89216,987.982809 Z M1462.92727,980.241022 C1458.65349,980.241022 1455.1754,983.71446 1455.1754,987.982809 C1455.1754,992.251157 1458.65349,995.724596 1462.92727,995.724596 C1467.20117,995.724596 1470.67927,992.251157 1470.67927,987.982809 C1470.67927,983.71446 1467.20117,980.241022 1462.92727,980.241022 Z M1442.43629,1009.53678 C1436.88101,1011.83516 1430.99728,1013 1424.94608,1013 C1412.92854,1013 1401.16746,1008.12907 1392.6316,999.624603 C1390.87449,1000.48 1388.92215,1000.93071 1386.96529,1000.93071 C1379.81679,1000.93071 1374,995.122013 1374,987.982809 C1374,980.843605 1379.81679,975.03438 1386.96529,975.03438 C1394.11326,975.03438 1399.93005,980.843605 1399.93005,987.982809 C1399.93005,991.087376 1398.8188,994.067659 1396.79235,996.415251 C1404.30516,1003.65195 1414.54367,1007.79389 1424.94608,1007.79389 C1430.30214,1007.79389 1435.51716,1006.76169 1440.44158,1004.72606 C1440.75541,1004.59488 1441.09103,1004.52909 1441.4382,1004.52909 C1442.49698,1004.52909 1443.44274,1005.1586 1443.84902,1006.13377 C1444.39687,1007.4607 1443.76282,1008.98605 1442.43629,1009.53678 Z M1386.96529,980.241022 C1382.69098,980.241022 1379.21289,983.71446 1379.21289,987.982809 C1379.21289,992.251157 1382.69098,995.724596 1386.96529,995.724596 C1391.2392,995.724596 1394.71716,992.251157 1394.71716,987.982809 C1394.71716,983.71446 1391.2392,980.241022 1386.96529,980.241022 Z M1424.94608,937.138263 C1419.51219,937.138263 1414.67542,933.754887 1412.79214,928.677834 C1396.77894,933.667345 1385.69215,947.648905 1384.50879,964.400913 C1384.40918,965.758879 1383.26633,966.821059 1381.90699,966.821059 L1381.72849,966.814294 C1381.0287,966.766676 1380.39678,966.450596 1379.93818,965.92574 C1379.48117,965.399293 1379.25698,964.729462 1379.30427,964.035623 C1380.64421,945.093069 1393.76941,928.829573 1412.00151,923.477956 C1412.37763,916.703909 1418.12337,911.240343 1424.94608,911.240343 C1432.09458,911.240343 1437.91137,917.049038 1437.91137,924.189303 C1437.91137,931.329038 1432.09458,937.138263 1424.94608,937.138263 Z M1424.94608,916.448047 C1420.67217,916.448047 1417.19421,919.920954 1417.19421,924.189303 C1417.19421,928.457651 1420.67217,931.930559 1424.94608,931.930559 C1429.21985,931.930559 1432.69795,928.457651 1432.69795,924.189303 C1432.69795,919.920954 1429.21985,916.448047 1424.94608,916.448047 Z" id="共享-2"></path>
        </g>
    </g>
</svg>