<?xml version="1.0" encoding="UTF-8"?>
<svg width="102px" height="86px" viewBox="0 0 102 86" version="1.1" xmlns="http://www.w3.org/2000/svg" xmlns:xlink="http://www.w3.org/1999/xlink">
    <!-- Generator: Sketch 49 (51002) - http://www.bohemiancoding.com/sketch -->
    <title>忠信</title>
    <desc>Created with Sketch.</desc>
    <defs></defs>
    <g id="关于镝普" stroke="none" stroke-width="1" fill="none" fill-rule="evenodd">
        <g id="关于镝普-点击-copy" transform="translate(-1064.000000, -919.000000)" fill="#76B0FC">
            <path d="M1165.98783,949.473757 C1166.01868,949.060101 1165.89616,948.649203 1165.64346,948.319658 L1149.37732,927.639385 C1149.14607,927.345564 1148.82515,927.135477 1148.46322,927.040963 L1117.78457,919.054778 C1117.58805,919.006393 1117.38477,918.993607 1117.1845,919.017173 C1117.15854,919.014666 1117.13546,919 1117.109,919 L1112.84818,919 C1112.82849,919 1112.81193,919.011282 1112.79325,919.012786 C1112.59924,918.993607 1112.40286,919.007772 1112.21374,919.055781 L1081.53659,927.041966 C1081.17454,927.13648 1080.85375,927.346567 1080.6225,927.640388 L1064.35635,948.32066 C1064.09225,948.656097 1063.98791,949.06687 1064.01098,949.474759 C1063.95706,949.958987 1064.10203,950.450611 1064.43912,950.819391 L1113.52073,1004.44432 C1113.85482,1004.80959 1114.31719,1005 1114.78559,1005 C1114.85707,1005 1114.92767,1004.98045 1114.99865,1004.97205 C1115.07064,1004.98045 1115.14074,1005 1115.21272,1005 C1115.68011,1005 1116.14249,1004.80859 1116.47708,1004.44432 L1165.55969,950.818388 C1165.89039,950.453619 1166.04665,949.962998 1165.98783,949.473757 Z M1160.1608,946.888911 L1140.00804,943.235705 L1148.31186,931.82395 L1160.1608,946.888911 Z M1145.53673,929.817344 L1136.83462,941.778509 L1122.00915,923.691857 L1145.53673,929.817344 Z M1114.99865,998.891184 L1095.66004,946.019356 L1134.33827,946.019356 L1114.99865,998.891184 Z M1113.45502,922.423188 L1116.54229,922.423188 L1133.07781,942.59667 L1096.919,942.59667 L1113.45502,922.423188 Z M1107.98816,923.691857 L1093.16369,941.778509 L1084.46108,929.817344 L1107.98816,923.691857 Z M1081.68645,931.82395 L1089.98977,943.235705 L1069.83701,946.888911 L1081.68645,931.82395 Z M1069.03215,950.767997 L1092.13096,946.342008 L1110.20335,995.749031 L1069.03215,950.767997 Z M1119.79446,995.748154 L1137.86634,946.341005 L1160.96566,950.766994 L1119.79446,995.748154 Z" id="忠信"></path>
        </g>
    </g>
</svg>