<?xml version="1.0" encoding="UTF-8"?>
<svg width="102px" height="91px" viewBox="0 0 102 91" version="1.1" xmlns="http://www.w3.org/2000/svg" xmlns:xlink="http://www.w3.org/1999/xlink">
    <!-- Generator: Sketch 49 (51002) - http://www.bohemiancoding.com/sketch -->
    <title>创新</title>
    <desc>Created with Sketch.</desc>
    <defs></defs>
    <g id="关于镝普" stroke="none" stroke-width="1" fill="none" fill-rule="evenodd">
        <g id="关于镝普-点击-copy" transform="translate(-754.000000, -916.000000)" fill="#76B0FC">
            <path d="M840.496,946.516278 C838.574987,945.777574 836.526686,945.106263 834.371542,944.503421 C834.927584,942.336084 835.371249,940.223985 835.692546,938.188971 C837.361441,927.598623 835.517908,920.16927 830.5,917.27046 C829.042023,916.427282 827.365902,916 825.518833,916 C819.685387,916 812.312946,920.336367 804.876247,927.660015 C803.251934,926.063054 801.620395,924.595955 799.993622,923.279643 C791.664518,916.537911 784.313754,914.421657 779.297076,917.320466 C776.071662,919.183613 774.112217,922.988223 773.62643,928.323479 C773.544799,929.219125 774.204763,930.011836 775.100702,930.092307 C775.997872,930.175855 776.786354,929.514238 776.867985,928.617976 C777.137013,925.66516 778.059394,921.798081 780.924464,920.142805 C784.637971,917.995932 790.841754,920.063565 797.945781,925.812409 C799.496304,927.067944 801.051593,928.466573 802.603346,929.990756 C799.484313,933.312078 796.380347,937.135922 793.399364,941.361198 C788.15701,941.838332 783.162469,942.63889 778.578849,943.738868 C777.776531,940.616493 777.224639,937.636597 776.95269,934.870573 C776.865525,933.975081 776.071662,933.321156 775.174493,933.408859 C774.279168,933.496562 773.6252,934.294811 773.713441,935.189688 C774.00107,938.116809 774.583093,941.265033 775.432145,944.559274 C773.349561,945.146422 771.367364,945.800346 769.505076,946.516894 C759.506002,950.365817 754,955.678455 754,961.476536 C754,967.274155 759.506002,972.587254 769.504,976.436331 C771.425013,977.175497 773.473929,977.846347 775.628458,978.448573 C775.073031,980.617602 774.628751,982.729087 774.307454,984.763023 C772.638559,995.354448 774.482092,1002.78319 779.5,1005.68261 C780.957977,1006.52456 782.634713,1006.95199 784.481167,1006.95199 C790.248509,1006.95199 797.517643,1002.7141 804.867331,995.542009 C806.442451,997.081117 808.023566,998.498364 809.599916,999.774363 C815.493932,1004.5454 820.897242,1007 825.330821,1007 C827.161748,1007 828.828799,1006.57995 830.295231,1005.73369 C835.313139,1002.83365 837.157287,995.405531 835.487777,984.814106 C835.167711,982.78017 834.724045,980.668686 834.167849,978.500271 C837.518092,977.576468 840.599922,976.488645 843.329863,975.251112 C844.148937,974.879529 844.511126,973.913105 844.140482,973.094546 C843.769378,972.27537 842.803798,971.911173 841.985953,972.283064 C839.400211,973.455204 836.478722,974.487174 833.29543,975.36528 C831.980268,970.965059 830.227436,966.370815 828.092585,961.723027 C830.323518,956.918296 832.147834,952.164803 833.504965,947.617949 C845.585393,951.003586 852.744609,956.350997 852.744609,961.476536 C852.744609,964.787702 849.859246,967.521107 847.439072,969.229312 C846.703472,969.748605 846.528835,970.764266 847.04706,971.499431 C847.565284,972.235673 848.580057,972.410617 849.31458,971.89194 C853.689281,968.804338 856,965.202367 856,961.476536 C856,955.678455 850.493998,950.365202 840.496,946.516278 Z M825.518833,919.258083 C826.787108,919.258083 827.915334,919.538886 828.872612,920.091722 C832.586734,922.238133 833.899436,928.649826 832.476817,937.681679 C832.171201,939.616373 831.749673,941.626153 831.220534,943.690708 C826.617697,942.599962 821.606399,941.806482 816.347135,941.337657 C813.396898,937.158694 810.299542,933.336081 807.151608,929.987833 C807.728096,929.419765 808.30397,928.868006 808.879843,928.336712 C815.22844,922.482163 821.136907,919.258083 825.518833,919.258083 Z M804.880552,932.323344 C807.336546,934.944582 809.763792,937.866163 812.112482,941.034236 C809.775168,940.906836 807.40019,940.841289 805,940.841289 C802.519255,940.841289 800.065567,940.910375 797.652157,941.046853 C799.998387,937.884165 802.428555,934.949967 804.880552,932.323344 Z M804.870252,990.895913 C802.327093,988.197897 799.81345,985.174149 797.385589,981.890063 C799.88432,982.03608 802.428093,982.111166 805,982.111166 C807.4789,982.111166 809.934433,982.039158 812.351379,981.900218 C809.924748,985.172303 807.40803,988.202667 804.870252,990.895913 Z M805,978.853083 C801.503252,978.853083 798.147014,978.71722 794.949272,978.464729 C793.153242,975.841798 791.415322,973.082544 789.760877,970.214354 C788.132259,967.392477 786.635234,964.544288 785.277489,961.709794 C786.685658,958.742977 788.252476,955.755387 789.964416,952.787954 C791.623011,949.913917 793.383222,947.126198 795.211075,944.466648 C798.330722,944.228158 801.598719,944.099527 805.000615,944.099527 C808.314731,944.099527 811.501712,944.221541 814.54803,944.448646 C816.377881,947.113581 818.148699,949.919302 819.832506,952.83796 C821.53553,955.791392 823.095123,958.762825 824.498526,961.715795 C823.148621,964.527363 821.657438,967.35401 820.036199,970.164502 C818.381754,973.032692 816.625233,975.814257 814.799072,978.470114 C811.605019,978.721375 808.325646,978.853083 805,978.853083 Z M790.760124,978.058526 C786.755913,977.596317 783.03887,976.945315 779.647735,976.145373 C780.677573,972.715885 781.98305,969.160227 783.538493,965.547947 C784.601845,967.6522 785.73622,969.755222 786.941465,971.84378 C788.171307,973.97619 789.447421,976.051054 790.760124,978.058526 Z M791.019005,944.862849 C789.691852,946.886477 788.397136,948.987652 787.146234,951.158682 C785.858743,953.390796 784.649962,955.635681 783.525733,957.876411 C781.888814,954.115037 780.518463,950.409669 779.448347,946.85278 C782.964925,946.014987 786.836467,945.336444 791.019005,944.862849 Z M757.255391,961.476536 C757.255391,956.377924 764.337127,951.06067 776.301028,947.672571 C777.654008,952.191113 779.469408,956.929682 781.684045,961.713949 C779.554113,966.35389 777.807123,970.941056 776.493806,975.334045 C764.414607,971.948408 757.255391,966.602228 757.255391,961.476536 Z M784.481167,1003.69314 C783.213507,1003.69314 782.084666,1003.41372 781.128003,1002.86012 C777.413881,1000.71448 776.101179,994.303245 777.523798,985.27093 C777.829414,983.336083 778.250942,981.326303 778.779928,979.260516 C783.233338,980.31772 788.068615,981.094275 793.141712,981.567255 C796.168968,985.868848 799.352259,989.795473 802.58828,993.220192 C802.098957,993.698557 801.60948,994.164921 801.120772,994.614513 C794.772175,1000.47045 788.863708,1003.69314 784.481167,1003.69314 Z M832.273278,985.320782 C833.695898,994.353713 832.38258,1000.76494 828.669073,1002.91059 C824.954951,1005.05623 818.751629,1002.98998 811.646372,997.23929 C810.151192,996.029452 808.648633,994.684829 807.152223,993.221885 C810.355961,989.838709 813.545248,985.923009 816.605402,981.58418 C821.691105,981.11597 826.551132,980.346647 831.014074,979.301444 C831.544289,981.37077 831.967662,983.383011 832.273278,985.320782 Z M830.140271,976.165837 C826.65367,976.975935 822.9108,977.614319 818.997905,978.065142 C820.318909,976.047977 821.608244,973.955264 822.854996,971.793928 C824.051786,969.717986 825.179551,967.631736 826.236446,965.546717 C827.797115,969.165612 829.106743,972.729117 830.140271,976.165837 Z M826.250743,957.888413 C825.132663,955.659684 823.931108,953.428185 822.651304,951.209149 C821.387949,949.019502 820.076937,946.890631 818.728262,944.834538 C822.928787,945.300286 826.8177,945.973444 830.35288,946.807083 C829.277384,950.388743 827.899807,954.110267 826.250743,957.888413 Z M805.038202,953.301093 C800.545534,953.301093 796.890731,956.959076 796.890731,961.455841 C796.890731,965.95276 800.545534,969.610743 805.038202,969.610743 C809.531485,969.610743 813.186134,965.95276 813.186134,961.455841 C813.186134,956.959076 809.531485,953.301093 805.038202,953.301093 Z M805.038202,966.349275 C802.343002,966.349275 800.149842,964.153499 800.149842,961.455841 C800.149842,958.75772 802.343002,956.563023 805.038202,956.563023 C807.734018,956.563023 809.927177,958.75772 809.927177,961.455841 C809.927177,964.153499 807.734018,966.349275 805.038202,966.349275 Z" id="创新"></path>
        </g>
    </g>
</svg>