<?xml version="1.0" encoding="UTF-8"?>
<svg width="75px" height="102px" viewBox="0 0 75 102" version="1.1" xmlns="http://www.w3.org/2000/svg" xmlns:xlink="http://www.w3.org/1999/xlink">
    <!-- Generator: Sketch 49 (51002) - http://www.bohemiancoding.com/sketch -->
    <title>精研</title>
    <desc>Created with Sketch.</desc>
    <defs></defs>
    <g id="关于镝普" stroke="none" stroke-width="1" fill="none" fill-rule="evenodd">
        <g id="关于镝普-点击-copy" transform="translate(-458.000000, -911.000000)" fill="#76B0FC">
            <path d="M517.408865,992.304937 L521.506312,992.304937 L521.506312,963.998082 L517.408865,963.998082 L517.408865,992.304937 Z M525.085652,1013 C524.92852,1013 524.819141,1012.99459 524.767226,1012.99195 L465.922769,1012.99459 C459.793018,1012.53826 457.853558,1007.86306 458.008493,1004.83079 L458.005834,928.190068 C458.005834,925.746722 458.756458,923.783168 460.235622,922.358631 C462.500676,920.179907 465.553354,920.222573 465.890741,920.222573 L471.937938,920.198767 L471.954241,924.274229 L465.832005,924.298035 C465.769222,924.289869 464.100898,924.29263 463.066997,925.306032 C462.427024,925.934982 462.102702,926.903074 462.102702,928.190068 L462.102702,1004.93418 C462.076109,1005.85995 462.291052,1008.63807 466.077241,1008.92465 L524.88019,1008.91925 C525.526869,1008.9534 527.171374,1008.80241 528.087802,1007.88687 C528.685804,1007.28989 528.94954,1006.39862 528.89485,1005.16499 L528.892191,928.097146 C528.89855,927.932692 528.976133,926.494699 528.063868,925.470486 C527.407592,924.735505 526.328599,924.31908 524.854868,924.231448 L519.134191,924.234208 L519.134191,920.158746 L524.976388,920.158746 C527.734574,920.317795 529.781447,921.217575 531.184763,922.830831 C533.188278,925.136289 533.009409,927.956497 532.981428,928.269649 L532.989522,1005.07471 C533.122835,1008.00371 531.958396,1009.81052 530.956639,1010.79793 C528.909303,1012.81186 526.071106,1013 525.085652,1013 Z M515.250878,930.134762 L475.686203,930.134762 L475.686203,920.161506 L483.521856,920.158746 L489.675657,913.313446 C489.950724,913.0241 492.108711,910.917712 495.383153,911.005344 C496.1221,910.967968 498.495955,911.071356 500.906,913.164748 L507.393488,920.158746 L515.250416,920.158746 L515.250416,930.134762 L515.250878,930.134762 Z M517.040545,947.105186 L511.500181,947.105186 L511.500181,943.035667 L526.554362,943.035667 L522.117162,957.097691 L518.2105,955.878776 L520.062349,950.011437 L490.765124,969.080419 L481.64117,962.579309 L469.815907,971.966553 L467.264048,968.774701 L481.508017,957.469699 L490.868918,964.140819 L517.040545,947.105186 Z M479.783534,926.059414 L479.783072,926.059414 L479.783072,924.236853 L485.354249,924.234208 L492.689947,916.072589 C492.700816,916.062238 493.770328,915.03538 495.544447,915.077586 C495.594974,915.082991 496.824856,915.029975 498.050691,916.077994 L505.596823,924.234208 L511.153547,924.234208 L511.153547,926.059414 L479.783534,926.059414 Z M467.843055,992.368014 L467.843055,978.76704 L471.896104,978.76704 L471.896104,992.368014 L467.843055,992.368014 Z M480.233804,992.368014 L480.233804,971.39024 L484.286853,971.39024 L484.286853,992.368014 L480.233804,992.368014 Z M492.624553,992.368014 L492.624553,975.07864 L496.677602,975.07864 L496.677602,992.368014 L492.624553,992.368014 Z M505.825912,992.368014 L505.825912,967.70184 L509.878961,967.70184 L509.878961,992.368014 L505.825912,992.368014 Z" id="精研"></path>
        </g>
    </g>
</svg>