<?xml version="1.0" encoding="UTF-8"?>
<svg width="24px" height="24px" viewBox="0 0 24 24" version="1.1" xmlns="http://www.w3.org/2000/svg" xmlns:xlink="http://www.w3.org/1999/xlink">
    <!-- Generator: Sketch 49 (51002) - http://www.bohemiancoding.com/sketch -->
    <title>QQ选中</title>
    <desc>Created with Sketch.</desc>
    <defs></defs>
    <g id="关于镝普" stroke="none" stroke-width="1" fill="none" fill-rule="evenodd">
        <g id="账户密码登录" transform="translate(-918.000000, -678.000000)" fill="#5EAADE" fill-rule="nonzero">
            <g id="Group-4" transform="translate(776.000000, 382.000000)">
                <g id="Group-6" transform="translate(0.000000, 296.000000)">
                    <g id="QQ选中" transform="translate(142.000000, 0.000000)">
                        <path d="M12,0 C5.36727272,0 0,5.36727272 0,12 C0,18.6327273 5.36727272,24 12,24 C18.6327273,24 24,18.6327273 24,12 C24,5.36727272 18.6327273,0 12,0 Z M16.9309091,15.0327273 C16.7563636,15.2509091 16.2981818,14.9890909 15.9490909,14.2690909 C15.8618182,14.5963636 15.6436364,15.12 15.1418182,15.7745455 C15.9709091,15.9709091 16.1890909,16.7781818 15.9272727,17.2145455 C15.7309091,17.52 15.2945454,17.7818182 14.5309091,17.7818182 C13.1563636,17.7818182 12.5672727,17.4109091 12.2836364,17.1490909 C12.24,17.0836364 12.1527273,17.0618182 12.0436364,17.0618182 C11.9345455,17.0618182 11.8690909,17.0836364 11.8036364,17.1490909 C11.5418182,17.4109091 10.9309091,17.7818182 9.55636364,17.7818182 C8.79272728,17.7818182 8.33454546,17.52 8.16,17.2145455 C7.87636364,16.7781818 8.11636364,15.9709091 8.94545454,15.7745455 C8.46545454,15.12 8.24727272,14.5963636 8.13818182,14.2690909 C7.8109091,14.9890909 7.3309091,15.2727273 7.15636364,15.0327273 C7.02545454,14.8363636 6.96,14.4218182 6.98181818,14.1381818 C7.0690909,13.0472727 7.7890909,12.1309091 8.22545454,11.6509091 C8.16,11.52 8.0290909,10.7127273 8.57454546,10.1672727 L8.57454546,10.1236364 C8.57454546,7.96363636 10.1018182,6.41454546 12.0436364,6.41454546 C13.9636364,6.41454546 15.5127273,7.96363636 15.5127273,10.1236364 L15.5127273,10.1672727 C16.0581818,10.7127273 15.9272727,11.52 15.8618182,11.6509091 C16.2763636,12.1309091 17.0181818,13.0472727 17.1054545,14.1381818 C17.1272727,14.4218182 17.0836364,14.8363636 16.9309091,15.0327273 Z" id="Shape"></path>
                    </g>
                </g>
            </g>
        </g>
    </g>
</svg>