<?xml version="1.0" encoding="UTF-8"?>
<svg width="10px" height="6px" viewBox="0 0 10 6" version="1.1" xmlns="http://www.w3.org/2000/svg" xmlns:xlink="http://www.w3.org/1999/xlink">
    <!-- Generator: Sketch 49 (51002) - http://www.bohemiancoding.com/sketch -->
    <title>Group 52 Copy 15</title>
    <desc>Created with Sketch.</desc>
    <defs></defs>
    <g id="关于镝普" stroke="none" stroke-width="1" fill="none" fill-rule="evenodd">
        <g transform="translate(-423.000000, -29.000000)" id="Group-52-Copy-15">
            <g transform="translate(422.000000, 26.000000)">
                <rect id="Rectangle-12" transform="translate(6.000000, 6.000000) scale(-1, -1) rotate(90.000000) translate(-6.000000, -6.000000) " x="0" y="0" width="12" height="12"></rect>
                <path d="M5.99832471,7.82958351 L10.1961636,3.16741109 C10.3693905,2.97502317 10.6657798,2.95949006 10.8581677,3.13271692 C11.0505556,3.30594378 11.0660887,3.60233311 10.8928619,3.79472103 L6.42807331,8.75337111 C6.40263685,8.80387893 6.36756695,8.85060265 6.32301148,8.89072058 C6.23042871,8.97408247 6.1137611,9.01373097 5.99832471,9.01099282 C5.88288832,9.01373097 5.76622071,8.97408247 5.67363794,8.89072058 C5.62908247,8.85060265 5.59401257,8.80387893 5.56857611,8.75337111 L1.10378753,3.79472103 C0.930560672,3.60233311 0.946093779,3.30594378 1.13848169,3.13271692 C1.33086961,2.95949006 1.62725895,2.97502317 1.8004858,3.16741109 L5.99832471,7.82958351 Z" id="Combined-Shape" fill-opacity="0.45" fill="#000000"></path>
            </g>
        </g>
    </g>
</svg>