<?xml version="1.0" encoding="UTF-8"?>
<svg width="24px" height="24px" viewBox="0 0 24 24" version="1.1" xmlns="http://www.w3.org/2000/svg" xmlns:xlink="http://www.w3.org/1999/xlink">
    <!-- Generator: Sketch 49 (51002) - http://www.bohemiancoding.com/sketch -->
    <title>微信</title>
    <desc>Created with Sketch.</desc>
    <defs></defs>
    <g id="关于镝普" stroke="none" stroke-width="1" fill="none" fill-rule="evenodd">
        <g id="账户密码登录" transform="translate(-878.000000, -678.000000)" fill="#D9D9D9" fill-rule="nonzero">
            <g id="Group-4" transform="translate(776.000000, 382.000000)">
                <g id="Group-6" transform="translate(0.000000, 296.000000)">
                    <g id="微信" transform="translate(102.000000, 0.000000)">
                        <g id="Group">
                            <path d="M7.48363636,9.03272728 C7.48363636,9.46652185 7.83529634,9.81818183 8.26909091,9.81818183 C8.70288548,9.81818183 9.05454546,9.46652185 9.05454546,9.03272728 C9.05454546,8.59893271 8.70288548,8.24727273 8.26909091,8.24727273 C7.83529634,8.24727273 7.48363636,8.59893271 7.48363636,9.03272728 Z" id="Shape"></path>
                            <path d="M10.9963636,9.0109091 C10.9963636,9.44470367 11.3480236,9.79636364 11.7818182,9.79636364 C12.2156127,9.79636364 12.5672727,9.44470367 12.5672727,9.0109091 C12.5672727,8.57711454 12.2156127,8.22545456 11.7818182,8.22545456 C11.3480236,8.22545456 10.9963636,8.57711454 10.9963636,9.0109091 Z" id="Shape"></path>
                            <path d="M12.96,12.5236364 C12.96,12.8248826 13.2042083,13.0690909 13.5054546,13.0690909 C13.8067008,13.0690909 14.0509091,12.8248826 14.0509091,12.5236364 C14.0509091,12.2223901 13.8067008,11.9781818 13.5054546,11.9781818 C13.2042083,11.9781818 12.96,12.2223901 12.96,12.5236364 Z" id="Shape"></path>
                            <path d="M12,0 C5.36727272,0 0,5.36727272 0,12 C0,18.6327273 5.36727272,24 12,24 C18.6327273,24 24,18.6327273 24,12 C24,5.36727272 18.6327273,0 12,0 Z M9.9490909,14.7709091 C9.31636362,14.7709091 8.81454544,14.64 8.18181818,14.5090909 L6.41454546,15.3818182 L6.91636364,13.8763636 C5.6509091,13.0036364 4.90909092,11.8690909 4.9090909,10.4727273 C4.9090909,8.07272728 7.1781818,6.19636364 9.9490909,6.19636364 C12.4145454,6.19636364 14.5963636,7.70181818 15.0327273,9.7309091 C14.88,9.70909092 14.7054546,9.70909092 14.5527273,9.7090909 C12.1527273,9.7090909 10.2763636,11.4981818 10.2763636,13.7018182 C10.2763636,14.0727273 10.3418182,14.4218182 10.4290909,14.7490909 C10.2545454,14.7490909 10.1018182,14.7709091 9.9490909,14.7709091 Z M17.3236364,16.5381818 L17.6945455,17.8036364 L16.32,17.04 C15.8181818,17.1709091 15.3163636,17.3018182 14.8145455,17.3018182 C12.4145455,17.3018182 10.5381818,15.6654545 10.5381818,13.6581818 C10.5381818,11.6509091 12.4145455,10.0145455 14.8145455,10.0145455 C17.0836364,10.0145455 19.0909091,11.6509091 19.0909091,13.6581818 C19.0909091,14.7709091 18.3490909,15.7745455 17.3236364,16.5381818 Z" id="Shape"></path>
                        </g>
                    </g>
                </g>
            </g>
        </g>
    </g>
</svg>