<?xml version="1.0" encoding="UTF-8"?>
<svg width="24px" height="24px" viewBox="0 0 24 24" version="1.1" xmlns="http://www.w3.org/2000/svg" xmlns:xlink="http://www.w3.org/1999/xlink">
    <!-- Generator: Sketch 49 (51002) - http://www.bohemiancoding.com/sketch -->
    <title>Shape</title>
    <desc>Created with Sketch.</desc>
    <defs></defs>
    <g id="关于镝普" stroke="none" stroke-width="1" fill="none" fill-rule="evenodd">
        <g id="账户密码登录" transform="translate(-956.000000, -678.000000)" fill="#D9D9D9" fill-rule="nonzero">
            <g id="Group-4" transform="translate(776.000000, 382.000000)">
                <g id="Group-6" transform="translate(0.000000, 296.000000)">
                    <path d="M191.97924,0 C185.363302,0 180,5.36928763 180,11.9926096 C180,18.6159315 185.363302,23.9852192 191.97924,23.9852192 C198.595205,23.9852192 203.95848,18.6159315 203.95848,11.9926096 C203.95848,5.36928763 198.595178,0 191.97924,0 Z M197.611189,13.9958959 C197.604864,14.3764288 197.497619,14.7816032 197.289261,15.2111725 C196.946088,15.9475967 196.3545,16.579671 195.514609,17.1075051 C194.674635,17.6352844 193.7675,18.0066624 192.793093,18.2214744 C191.818714,18.4362591 190.877793,18.506785 189.970411,18.4329151 C189.41888,18.3959938 188.894783,18.3316626 188.39812,18.2397295 C187.901457,18.1478238 187.383466,18.0005225 186.844063,17.7979079 C186.304689,17.595211 185.835761,17.3497272 185.437171,17.0615112 C185.038554,16.7732677 184.695298,16.395887 184.407404,15.9293142 C184.119454,15.4627688 183.938641,14.9349347 183.864908,14.3458118 L183.864908,13.9593584 C183.852779,13.6895345 183.944746,13.2907192 184.140892,12.762885 C184.337039,12.2351331 184.637309,11.7072716 185.041785,11.1794923 L185.244174,10.884972 C185.391311,10.7007494 185.599805,10.4614054 185.869657,10.1668303 C186.139591,9.87231 186.436931,9.56847029 186.761734,9.25553046 C187.086536,8.94253583 187.469601,8.64193047 187.910903,8.35365964 C188.352232,8.06538881 188.787483,7.84764386 189.216573,7.7003426 C189.57204,7.57743621 189.890737,7.5038404 190.1728,7.47947293 C190.454863,7.45510546 190.68474,7.47352497 190.86246,7.53478629 C191.040153,7.5960476 191.187263,7.67581066 191.303817,7.77399324 C191.420234,7.87214839 191.509108,8.00097536 191.570301,8.16041925 C191.631494,8.31983574 191.671386,8.46395746 191.689757,8.59278439 C191.708238,8.72169356 191.717465,8.85967543 191.717465,9.00692188 C191.704925,9.06815579 191.686499,9.1510162 191.662131,9.25553046 C191.637791,9.35998993 191.622486,9.43684754 191.616298,9.48585659 C191.610028,9.53492046 191.603923,9.59324893 191.598091,9.66078712 C191.59215,9.72840755 191.601322,9.77133161 191.625662,9.78986076 C191.650002,9.80825285 191.683761,9.8267546 191.726884,9.84517412 C191.770034,9.86367587 191.831391,9.86677318 191.911092,9.85463057 C191.990739,9.84240571 192.091906,9.81787377 192.214703,9.78097993 L192.453643,9.67016135 C192.612909,9.60892744 192.815134,9.54448655 193.060262,9.47703059 C193.305472,9.40946496 193.56596,9.35426127 193.841671,9.31147428 C194.117464,9.26863246 194.393257,9.27181203 194.66905,9.32082107 C194.94487,9.36996718 195.16867,9.48053906 195.340448,9.65250932 C195.438111,9.75107563 195.514855,9.86164752 195.570518,9.98417017 C195.626235,10.1066928 195.663142,10.2201702 195.681185,10.3246296 C195.699146,10.4291713 195.702322,10.5397432 195.690549,10.6563179 C195.678803,10.7729748 195.663526,10.8711573 195.644716,10.9508382 C195.625851,11.0306012 195.598171,11.1102821 195.561729,11.1900451 C195.525259,11.269726 195.5007,11.321942 195.488133,11.3466932 C195.475593,11.3714718 195.463245,11.3898639 195.451089,11.4020888 L195.395755,11.4939945 C195.359285,11.5555847 195.368485,11.623123 195.423435,11.6966091 C195.478358,11.7700131 195.597815,11.8252442 195.78175,11.8621654 L195.78175,11.8604386 C195.928805,11.8848883 196.097243,11.9400372 196.287202,12.0259949 C196.477078,12.1120349 196.679275,12.2471113 196.893793,12.4313338 C197.10842,12.6155563 197.283128,12.8271888 197.418109,13.0663958 C197.55309,13.3055206 197.617431,13.6153082 197.611189,13.9958959 Z M196.664408,9.76264264 C196.591086,8.92773442 196.076188,8.6208248 195.119825,8.84191374 C194.997411,8.84153001 194.89326,8.79849632 194.807398,8.71294974 C194.721454,8.62729353 194.678496,8.52302593 194.678496,8.40009214 C194.678085,8.32666079 194.699496,8.2561897 194.742646,8.18856927 C194.785768,8.12103107 194.838008,8.06585475 194.899119,8.02312259 C194.960312,7.98028077 195.033881,7.9589284 195.119852,7.9589284 C195.401915,7.90978229 195.708483,7.91589471 196.039527,7.97718346 C197.167368,8.17354862 197.657706,8.9713163 197.510624,10.3705413 C197.510624,10.39532 197.504518,10.4138217 197.492389,10.4259643 C197.480205,10.4876368 197.455701,10.545883 197.418821,10.6008674 C197.381859,10.6558793 197.332877,10.7018184 197.271684,10.7387397 C197.210491,10.7756335 197.143028,10.7941353 197.069268,10.7941353 L197.068693,10.7935597 C196.946307,10.7931485 196.842155,10.7501422 196.756184,10.6645134 C196.670322,10.5789943 196.627391,10.4746993 196.627391,10.3517381 C196.676783,10.167543 196.689132,9.97120524 196.664408,9.76264264 Z M199.947311,9.60700872 C199.92883,10.0425534 199.846062,10.4996972 199.699007,10.9784126 C199.637814,11.3958667 199.43559,11.6046212 199.092334,11.6046212 C198.96992,11.6047034 198.862648,11.5893812 198.770461,11.5587369 C198.678275,11.5280925 198.601585,11.4759039 198.540392,11.4019791 C198.479117,11.3281915 198.448534,11.2361213 198.448534,11.1257139 C198.448534,11.0762388 198.454667,11.0179104 198.466851,10.9507833 C198.47898,10.8836563 198.491383,10.8284252 198.503895,10.785227 C198.516407,10.7420563 198.52881,10.6961172 198.540939,10.6474096 C198.553151,10.5987569 198.562323,10.5681125 198.56862,10.5555039 C198.57489,10.5429501 198.578066,10.5305608 198.578066,10.5184182 C198.774185,9.84333763 198.712827,9.14367029 198.393884,8.41947102 C198.235029,8.16140598 198.048082,7.9344787 197.833099,7.7385247 C197.618088,7.54251587 197.40357,7.38915699 197.189381,7.27844804 C196.975192,7.16762946 196.760592,7.07558673 196.545663,7.00210055 C196.330625,6.92866921 196.134506,6.88275747 195.957197,6.86433796 C195.779861,6.84583621 195.62963,6.83662645 195.506422,6.83662645 C195.383297,6.83662645 195.300502,6.84583621 195.258146,6.86433796 C195.215735,6.88275747 195.166753,6.9012592 195.111009,6.91965131 C195.055346,6.93815306 195.003188,6.95046013 194.954508,6.95681925 C194.905855,6.96306873 194.859939,6.97230589 194.816817,6.98444853 C194.773694,6.99667339 194.746013,7.00270358 194.733912,7.00270358 L194.678578,7.00270358 C194.507101,7.00234725 194.360046,6.94086664 194.237276,6.81831659 C194.114452,6.69576654 194.053067,6.54243506 194.053067,6.35823994 C194.053067,6.22316352 194.096053,6.09729686 194.181888,5.98072219 C194.267832,5.86403788 194.37828,5.7872351 194.513206,5.75031383 L194.531441,5.73205878 L194.549648,5.69500047 C194.56227,5.68277561 194.574563,5.67674542 194.586747,5.67674542 C195.494074,5.50466553 196.217466,5.48013359 196.756868,5.60306737 L196.756375,5.60306737 C197.01366,5.66432869 197.261991,5.74403695 197.501315,5.8421921 C197.740584,5.94037468 197.988888,6.07232636 198.246282,6.23807454 C198.503594,6.40376791 198.736593,6.58799044 198.945334,6.79060505 C199.153992,6.99321967 199.337982,7.23870354 199.497248,7.52694696 C199.656514,7.81527263 199.775889,8.12508771 199.855563,8.4565567 C199.935182,8.78805311 199.965792,9.17154627 199.947311,9.60700872 Z M193.583739,11.9910917 C192.664283,11.4875977 191.536442,11.266728 190.200326,11.3284005 C188.864155,11.3899907 187.736369,11.7368093 186.816858,12.3687191 C185.897347,13.000629 185.437537,13.7522931 185.437537,14.6237662 C185.437537,15.5072997 185.900277,16.2376114 186.825647,16.8145094 C187.751099,17.3914349 188.875764,17.6492806 190.199669,17.5880193 L190.200326,17.5873615 C191.499562,17.5261002 192.618148,17.142607 193.556113,16.4369095 C194.49405,15.7312119 194.963032,14.9365416 194.963032,14.052871 C194.963032,13.181809 194.50325,12.494531 193.583739,11.9910917 Z M192.323409,14.991389 C192.268431,15.2984357 192.155108,15.5562814 191.983302,15.7647618 C191.554102,16.3169908 190.990195,16.669867 190.291554,16.8233355 C189.592913,16.9769136 188.838938,16.8572964 188.029602,16.464621 C187.894649,16.3908059 187.77815,16.2986535 187.680077,16.1883283 C187.582003,16.0779757 187.511638,15.9766958 187.468899,15.884379 C187.426105,15.7920621 187.392319,15.6907274 187.367677,15.5804022 C187.342926,15.4700222 187.330551,15.3964538 187.330551,15.3595325 L187.330551,15.2858545 L187.312316,15.1385806 C187.311905,15.0525133 187.318011,14.9329235 187.330551,14.7797565 C187.343173,14.6266717 187.370853,14.4579632 187.413593,14.2737407 C187.456305,14.0896004 187.532967,13.902445 187.643662,13.7124116 C187.75433,13.5223233 187.889255,13.3444051 188.048522,13.1786843 C188.207706,13.0129635 188.428411,12.8656897 188.710501,12.7368627 C188.992564,12.6080632 189.311288,12.5252028 189.666701,12.4883089 L189.666153,12.4877333 C190.168976,12.426472 190.613481,12.4663261 190.999504,12.6072409 C191.385554,12.7482927 191.676625,12.9477826 191.872689,13.2058202 C192.068835,13.4638304 192.206773,13.7491409 192.286365,14.0617519 C192.365984,14.3743902 192.378305,14.6842327 192.323409,14.991389 Z" id="Shape"></path>
                </g>
            </g>
        </g>
    </g>
</svg>